<?xml version="1.0" encoding="UTF-8" standalone="no"?>
<!-- Created with Inkscape (http://www.inkscape.org/) -->

<svg
   width="180.07661mm"
   height="180.07661mm"
   viewBox="0 0 180.07661 180.07661"
   version="1.1"
   id="svg5"
   inkscape:version="1.1.2 (b8e25be833, 2022-02-05)"
   sodipodi:docname="single_card_android.svg"
   xmlns:inkscape="http://www.inkscape.org/namespaces/inkscape"
   xmlns:sodipodi="http://sodipodi.sourceforge.net/DTD/sodipodi-0.dtd"
   xmlns="http://www.w3.org/2000/svg"
   xmlns:svg="http://www.w3.org/2000/svg">
  <sodipodi:namedview
     id="namedview7"
     pagecolor="#ffffff"
     bordercolor="#111111"
     borderopacity="1"
     inkscape:pageshadow="0"
     inkscape:pageopacity="0"
     inkscape:pagecheckerboard="1"
     inkscape:document-units="mm"
     showgrid="false"
     inkscape:zoom="0.94466828"
     inkscape:cx="-68.277936"
     inkscape:cy="286.87319"
     inkscape:window-width="3440"
     inkscape:window-height="1369"
     inkscape:window-x="-8"
     inkscape:window-y="-8"
     inkscape:window-maximized="1"
     inkscape:current-layer="layer1"
     fit-margin-top="0"
     fit-margin-left="0"
     fit-margin-right="0"
     fit-margin-bottom="0" />
  <defs
     id="defs2" />
  <circle
     style="display:none;fill:#f7f7f7;stroke:#cacaca;stroke-width:0.25;stroke-linecap:square;stroke-linejoin:round"
     id="path1302"
     cx="90.038307"
     cy="90.038307"
     r="89.913307"
     inkscape:label="CircleGuide" />
  <g
     inkscape:label="Layer 1"
     inkscape:groupmode="layer"
     id="layer1"
     transform="translate(-46.810303,-20.831765)">
    <g
       id="g11819"
       inkscape:label="Card"
       transform="matrix(1.827364,0,0,1.9104958,42.450715,36.861171)">
      <rect
         style="fill:none;stroke:#000000;stroke-width:2;stroke-linecap:square;stroke-linejoin:round;stroke-miterlimit:4;stroke-dasharray:none"
         id="rect1627"
         width="35.081879"
         height="55.81208"
         x="33.48587"
         y="10.498446" />
      <rect
         style="fill:none;stroke:#078300;stroke-width:0.99491;stroke-linecap:square;stroke-linejoin:round;stroke-miterlimit:4;stroke-dasharray:none;stroke-opacity:1"
         id="rect2167"
         width="32.805882"
         height="53.291725"
         x="34.631641"
         y="11.506144"
         ry="0" />
      <rect
         style="fill:#f6f6f6;fill-opacity:1;stroke:#000000;stroke-width:0.25;stroke-linecap:square;stroke-linejoin:round;stroke-miterlimit:4;stroke-dasharray:none;stroke-opacity:1"
         id="rect7475"
         width="32.174263"
         height="29.583523"
         x="34.870049"
         y="14.739246"
         ry="0" />
      <rect
         style="fill:#b7ffb6;fill-opacity:1;stroke:#000000;stroke-width:0.205527;stroke-linecap:square;stroke-linejoin:round;stroke-miterlimit:4;stroke-dasharray:none;stroke-opacity:1"
         id="rect2691"
         width="32.820511"
         height="3.978595"
         x="34.61195"
         y="11.486452"
         ry="1.253166" />
      <rect
         style="fill:#e4f2df;fill-opacity:1;stroke:#000000;stroke-width:0.244789;stroke-linecap:square;stroke-linejoin:round;stroke-miterlimit:4;stroke-dasharray:none;stroke-opacity:1"
         id="rect3699"
         width="32.284504"
         height="19.33077"
         x="34.797417"
         y="46.350742"
         ry="0" />
      <rect
         style="fill:#b7ffb6;fill-opacity:1;stroke:#000000;stroke-width:0.19057;stroke-linecap:square;stroke-linejoin:round;stroke-miterlimit:4;stroke-dasharray:none;stroke-opacity:1"
         id="rect2691-4"
         width="32.776039"
         height="3.4252393"
         x="34.586662"
         y="43.354729"
         ry="1.0788717" />
      <text
         xml:space="preserve"
         style="font-style:normal;font-weight:normal;font-size:20.9495px;line-height:1.25;font-family:sans-serif;fill:#000000;fill-opacity:1;stroke:none;stroke-width:0.245502"
         x="37.781445"
         y="63.191551"
         id="text2758"><tspan
           sodipodi:role="line"
           id="tspan2756"
           style="font-style:normal;font-variant:normal;font-weight:normal;font-stretch:normal;font-size:20.9495px;font-family:Algerian;-inkscape-font-specification:Algerian;stroke-width:0.245502"
           x="37.781445"
           y="63.191551">=4</tspan></text>
      <g
         fill="none"
         id="g928"
         transform="matrix(0.26127507,0,0,0.24990615,37.448854,16.644378)">
        <path
           d="M 100,49.998 C 100,77.613 77.615,100 49.998,100 22.385,100 0,77.613 0,49.998 0,22.385 22.385,0 49.998,0 77.615,0 100,22.385 100,49.998 Z"
           id="Shape"
           fill="#a3c095" />
        <path
           d="m 93.762,56.225 c 0,1.668 -0.645,3.164 -1.936,4.498 -1.289,1.332 -2.77,1.998 -4.436,1.998 -2.662,0 -4.623,-1.25 -5.869,-3.748 l -5.871,-0.25 c -1.252,0 -3.709,0.543 -7.371,1.625 -3.914,1.082 -6.164,1.957 -6.746,2.623 -0.916,0.998 -1.664,3.332 -2.248,6.996 -0.502,2.998 -0.748,5.205 -0.748,6.621 0,2.246 0.352,3.893 1.061,4.934 0.709,1.041 2.166,1.916 4.371,2.623 2.205,0.707 3.561,1.104 4.061,1.187 0.332,0 0.873,-0.041 1.625,-0.125 h 1.498 c 1.08,0 2.205,0.17 3.373,0.5 1.666,0.5 2.375,1.166 2.125,2 -1.168,-0.166 -3.207,0.084 -6.121,0.75 l 3.496,1.748 c 0,1 -1.416,1.498 -4.246,1.498 -0.752,0 -1.771,-0.166 -3.063,-0.498 -1.291,-0.336 -2.145,-0.5 -2.559,-0.5 h -1.625 c -0.082,0.832 -0.334,2.08 -0.75,3.746 -1.418,-0.084 -3.08,-0.918 -4.996,-2.498 -1.918,-1.58 -3.123,-2.373 -3.621,-2.373 -0.502,0 -1.211,0.793 -2.125,2.373 -0.918,1.58 -1.375,2.664 -1.375,3.248 -1.082,-0.584 -1.996,-1.668 -2.75,-3.248 -0.332,-1.084 -0.707,-2.166 -1.121,-3.248 -0.832,0.084 -2.375,1.834 -4.621,5.248 h -0.627 c -0.166,-0.252 -0.795,-2 -1.873,-5.248 -2.582,-0.832 -4.996,-1.248 -7.246,-1.248 -1.082,0 -2.748,0.25 -4.996,0.748 l -3.496,-0.248 c 0.498,-0.5 1.955,-1.457 4.371,-2.873 2.83,-1.666 4.996,-2.5 6.496,-2.5 0.246,0 0.578,0.043 1,0.125 0.414,0.086 0.75,0.125 1,0.125 0.578,0 1.518,-0.312 2.809,-0.938 1.291,-0.623 2.039,-1.186 2.246,-1.684 0.211,-0.504 0.316,-1.793 0.316,-3.875 0,-4.746 -1.25,-8.285 -3.75,-10.617 -2.168,-2.082 -5.746,-3.58 -10.744,-4.498 -1.332,4.746 -5.08,7.123 -11.24,7.123 -2,0 -3.998,-1.207 -5.996,-3.623 -1.996,-2.416 -2.996,-4.623 -2.996,-6.621 0,-3.082 1.287,-5.621 3.869,-7.623 -2.08,-2.162 -3.121,-4.369 -3.121,-6.617 0,-2.084 0.643,-3.914 1.936,-5.5 1.291,-1.578 2.977,-2.496 5.059,-2.748 -0.166,-2.662 0.707,-4.496 2.623,-5.496 -0.916,-0.914 -1.373,-2.537 -1.373,-4.869 0,-2.748 0.916,-5.039 2.748,-6.871 1.83,-1.832 4.121,-2.75 6.869,-2.75 3,0 5.457,1.045 7.371,3.125 2.416,-8.244 7.621,-12.367 15.613,-12.367 4.164,0 7.828,1.666 10.994,4.998 1.166,1.248 1.748,1.916 1.748,1.996 -1,0 -0.498,-0.188 1.5,-0.561 1.996,-0.375 3.453,-0.563 4.373,-0.563 3.246,0 6.119,1.207 8.619,3.623 2.164,2.166 3.664,4.912 4.498,8.244 0.58,0.084 1.498,0.332 2.748,0.748 1.83,0.92 2.748,2.498 2.748,4.748 0,0.418 -0.336,1.209 -1,2.373 5.328,2.998 7.994,7.162 7.994,12.492 0,1.498 -0.582,3.584 -1.748,6.247 2.166,1.247 3.246,3.081 3.246,5.495 z m -51.467,5.496 v -1.623 c 0,-1.914 -0.936,-3.664 -2.809,-5.246 -1.875,-1.582 -3.77,-2.373 -5.684,-2.373 -2.334,0 -4.496,0.541 -6.496,1.621 4.413,-0.248 9.411,2.293 14.989,7.621 z M 40.049,46.232 c -1.25,-1.418 -2.332,-2.875 -3.25,-4.373 -3.498,0.916 -5.246,1.957 -5.246,3.121 1,-0.08 2.457,0.105 4.371,0.564 1.914,0.459 3.291,0.688 4.125,0.688 z m 7.621,-3.873 v -5.496 c -2,-0.332 -3.211,-0.5 -3.623,-0.5 v 1.873 z m 16.238,-3.498 c -1,-0.416 -2.875,-1.25 -5.621,-2.498 v 10.742 c 3.912,-2.25 5.785,-4.998 5.621,-8.244 z m 6.867,14.741 -2.746,-3.373 c -1.664,1.167 -3.352,2.354 -5.061,3.561 -1.709,1.207 -3.186,2.563 -4.432,4.06 3.747,-2.002 7.829,-3.414 12.239,-4.248 z"
           fill="#0d0f0f"
           id="path926" />
      </g>
    </g>
  </g>
</svg>
